<svg xmlns="http://www.w3.org/2000/svg" viewBox="0 0 64 64">
  <rect width="64" height="64" fill="#050c15"/>
  <!-- Oak leaf body -->
  <path d="M32,6 C38,10 46,17 46,27 C46,35 41,41 36,46 C34,48 33,50 32,52 C31,50 30,48 28,46 C23,41 18,35 18,27 C18,17 26,10 32,6 Z" fill="#0e1e35" stroke="#c09040" stroke-width="1.2"/>
  <!-- Left lobes -->
  <path d="M18,27 C13,25 10,20 13,15 C15,13 20,14 22,18" fill="#0e1e35" stroke="#c09040" stroke-width="1.2"/>
  <path d="M19,34 C13,32 10,37 13,42 C15,44 20,43 22,39" fill="#0e1e35" stroke="#c09040" stroke-width="1.2"/>
  <!-- Right lobes -->
  <path d="M46,27 C51,25 54,20 51,15 C49,13 44,14 42,18" fill="#0e1e35" stroke="#c09040" stroke-width="1.2"/>
  <path d="M45,34 C51,32 54,37 51,42 C49,44 44,43 42,39" fill="#0e1e35" stroke="#c09040" stroke-width="1.2"/>
  <!-- Stem -->
  <line x1="32" y1="52" x2="32" y2="59" stroke="#c09040" stroke-width="1.8" stroke-linecap="round"/>
  <!-- Midrib -->
  <line x1="32" y1="9" x2="32" y2="52" stroke="#c09040" stroke-width="1" stroke-linecap="round" opacity="0.6"/>
  <!-- Veins -->
  <line x1="32" y1="22" x2="22" y2="17" stroke="#c09040" stroke-width="0.8" stroke-linecap="round" opacity="0.5"/>
  <line x1="32" y1="22" x2="42" y2="17" stroke="#c09040" stroke-width="0.8" stroke-linecap="round" opacity="0.5"/>
  <line x1="32" y1="32" x2="20" y2="29" stroke="#c09040" stroke-width="0.8" stroke-linecap="round" opacity="0.5"/>
  <line x1="32" y1="32" x2="44" y2="29" stroke="#c09040" stroke-width="0.8" stroke-linecap="round" opacity="0.5"/>
</svg>
